<svg width="20" height="23" viewBox="0 0 20 23" fill="none" xmlns="http://www.w3.org/2000/svg">
    <path d="M16 7C16 5.4087 15.3679 3.88258 14.2426 2.75736C13.1174 1.63214 11.5913 1 10 1C8.4087 1 6.88258 1.63214 5.75736 2.75736C4.63214 3.88258 4 5.4087 4 7C4 14 1 16 1 16H19C19 16 16 14 16 7Z" stroke="#5C6D8E" stroke-width="2" stroke-linecap="round" stroke-linejoin="round"/>
    <svg x="7" y="19">
        <path d="M4.73002 1C4.55421 1.30308 4.30186 1.55465 3.99825 1.72953C3.69463 1.90441 3.3504 1.99646 3.00002 1.99646C2.64964 1.99646 2.30541 1.90441 2.00179 1.72953C1.69818 1.55465 1.44583 1.30308 1.27002 1" stroke="#5C6D8E" stroke-width="2" stroke-linecap="round" stroke-linejoin="round"/>
    </svg>
</svg>
